<svg xmlns="http://www.w3.org/2000/svg" viewBox="0 0 459 102.86"><defs><style>.cls-1{fill:#2c2d2d;}.cls-2{fill:#fff;}</style></defs><title>アセット 3</title><g id="レイヤー_2" data-name="レイヤー 2"><g id="レイヤー_1-2" data-name="レイヤー 1"><rect class="cls-1" width="459" height="102.86"/><path class="cls-2" d="M76,34.27,69.23,40.9q-6.89-7.5-15.49-7.5A16.39,16.39,0,0,0,41.5,38.52a17.39,17.39,0,0,0-5,12.62,19.07,19.07,0,0,0,2.2,9.27A16.13,16.13,0,0,0,45,66.78a18.77,18.77,0,0,0,16.63.68,27.14,27.14,0,0,0,7.64-5.88l6.55,7a36.19,36.19,0,0,1-10.62,7.83,28.15,28.15,0,0,1-11.41,2.18q-11.82,0-19.35-7.72T26.87,51.12A27.66,27.66,0,0,1,30.3,37.24a25.88,25.88,0,0,1,9.82-9.77,27.07,27.07,0,0,1,13.77-3.69A28.08,28.08,0,0,1,66,26.51,29.15,29.15,0,0,1,76,34.27Z"/><path class="cls-2" d="M107.12,38.69h9.41V77.32h-9.41V73.24a18.67,18.67,0,0,1-5.52,3.89,15.13,15.13,0,0,1-6,1.18A16.46,16.46,0,0,1,83,72.51a20.61,20.61,0,0,1-5.3-14.43q0-9,5.13-14.66A16.1,16.1,0,0,1,95.31,37.7,15.58,15.58,0,0,1,101.65,39,17.45,17.45,0,0,1,107.12,43Zm-9.89,8A9.36,9.36,0,0,0,90,49.82,11.69,11.69,0,0,0,87.09,58,11.76,11.76,0,0,0,90,66.21a9.41,9.41,0,0,0,7.23,3.23,9.53,9.53,0,0,0,7.35-3.18,11.8,11.8,0,0,0,2.92-8.32,11.45,11.45,0,0,0-2.92-8.17A9.65,9.65,0,0,0,97.23,46.65Z"/><path class="cls-2" d="M121.49,38.69h3.35c0-5.06.1-8.06.24-9a7.46,7.46,0,0,1,2.6-5.06A9.54,9.54,0,0,1,134,22.79a19.18,19.18,0,0,1,6.62,1.38v7.39a12.06,12.06,0,0,0-3.35-.61,3.47,3.47,0,0,0-2.41.71,3.14,3.14,0,0,0-.55,2.2l0,4.83h6V46.9h-6V77.32h-9.41V46.9h-3.35Z"/><path class="cls-2" d="M181.53,60.81H151.3a10.43,10.43,0,0,0,3.5,6.55,10.78,10.78,0,0,0,7.26,2.43A12.36,12.36,0,0,0,171.12,66l7.93,3.83a18.93,18.93,0,0,1-7.1,6.41,21.73,21.73,0,0,1-9.83,2.07q-8.82,0-14.37-5.73a19.82,19.82,0,0,1-5.55-14.36,20.54,20.54,0,0,1,5.53-14.68,18.34,18.34,0,0,1,13.88-5.84q8.85,0,14.41,5.84T181.56,59Zm-9.41-7.63a9.74,9.74,0,0,0-3.68-5.26,10.5,10.5,0,0,0-6.37-2,11.07,11.07,0,0,0-6.9,2.27,12.75,12.75,0,0,0-3.46,5Z"/><path class="cls-2" d="M267.74,25.1H278q8.31,0,12,1.58a12.21,12.21,0,0,1,5.79,5.11,16.09,16.09,0,0,1,2.12,8.47,13.84,13.84,0,0,1-10.3,14.13c-1.87.54-5.25.81-10.17.81V77.32h-9.65Zm9.65,20.41h3.07a16.33,16.33,0,0,0,5-.53,4.53,4.53,0,0,0,2.22-1.77,5.28,5.28,0,0,0,.81-3,4.81,4.81,0,0,0-2.27-4.42c-1.11-.69-3.15-1-6.14-1h-2.72Z"/><path class="cls-2" d="M311.76,25.1h9.79l19.5,52.22H331l-4-10.76h-20.7l-4.12,10.76h-10Zm5,13.84-6.8,17.93h13.56Z"/><path class="cls-2" d="M345.22,25.1h10.22q8.4,0,12,1.54a12.42,12.42,0,0,1,5.73,5.13,16.14,16.14,0,0,1,2.17,8.49,14.76,14.76,0,0,1-2.4,8.61,14.57,14.57,0,0,1-7.22,5.23l12,23.22H367.15L355.75,55.2h-.88V77.32h-9.65Zm9.65,20.41h3q4.61,0,6.34-1.25A4.73,4.73,0,0,0,366,40.13a5.16,5.16,0,0,0-.86-3,4.78,4.78,0,0,0-2.31-1.82,16.89,16.89,0,0,0-5.29-.55h-2.64Z"/><path class="cls-2" d="M383.55,25.1h9.58V77.32h-9.58Z"/><path class="cls-2" d="M431.24,32.2l-7.15,6.49q-3.76-5.38-7.67-5.39a4.64,4.64,0,0,0-3.11,1,3.11,3.11,0,0,0-1.21,2.37,4.09,4.09,0,0,0,.87,2.48,65.72,65.72,0,0,0,7.08,6.71q5.52,4.76,6.7,6a21,21,0,0,1,4.16,5.84,15.09,15.09,0,0,1,1.22,6.09,14.18,14.18,0,0,1-4.31,10.61,15.45,15.45,0,0,1-11.25,4.19,16.4,16.4,0,0,1-9.44-2.73,21.47,21.47,0,0,1-6.88-8.59l8.11-5q3.66,6.91,8.42,6.92A6.11,6.11,0,0,0,421,67.7a4.46,4.46,0,0,0,1.69-3.44,6,6,0,0,0-1.28-3.56,37.39,37.39,0,0,0-5.62-5.43q-8.29-7-10.71-10.74A13.9,13.9,0,0,1,402.63,37a12.51,12.51,0,0,1,4-9.32,13.72,13.72,0,0,1,9.92-3.89,15.38,15.38,0,0,1,7.23,1.81A26.57,26.57,0,0,1,431.24,32.2Z"/><path class="cls-2" d="M205.45,45.37a4.86,4.86,0,0,0-3.82,1.76,6.66,6.66,0,0,0-1.51,4.51,6.76,6.76,0,0,0,1.54,4.57A4.85,4.85,0,0,0,205.47,58a5,5,0,0,0,3.87-1.76,6.81,6.81,0,0,0,1.53-4.62,6.56,6.56,0,0,0-1.53-4.52A5,5,0,0,0,205.45,45.37Z"/><path class="cls-2" d="M232,46.08A5.3,5.3,0,0,0,228.63,45,5.65,5.65,0,0,0,225,46.21,7,7,0,0,0,223.18,49h10.74A5.38,5.38,0,0,0,232,46.08Z"/><path class="cls-2" d="M246.61,30.48V24.7H188.28V51.38c0,15.84,13.1,28.69,29.26,28.69a29.19,29.19,0,0,0,28-20.31c.26,0,.51,0,.77,0a14.66,14.66,0,1,0,.33-29.32Zm-31,31.88h-5V60.1a9.56,9.56,0,0,1-2.91,2.15,7.59,7.59,0,0,1-3.16.67A8.52,8.52,0,0,1,198,59.7a11.78,11.78,0,0,1-2.79-8,12.08,12.08,0,0,1,2.7-8.12,8.33,8.33,0,0,1,6.56-3.17,7.72,7.72,0,0,1,3.34.73,9.23,9.23,0,0,1,2.88,2.18V32.7h5Zm23.26-9.14H223a5.88,5.88,0,0,0,1.84,3.63,5.53,5.53,0,0,0,3.82,1.34,6.35,6.35,0,0,0,4.77-2.1l4.18,2.12a10.17,10.17,0,0,1-3.74,3.55,10.93,10.93,0,0,1-5.17,1.16,9.84,9.84,0,0,1-7.57-3.18,11.3,11.3,0,0,1-2.92-8,11.7,11.7,0,0,1,2.91-8.13,9.41,9.41,0,0,1,7.3-3.24A9.75,9.75,0,0,1,236,43.65a12.23,12.23,0,0,1,2.92,8.54Zm7.86-2.94c0-.67,0-1.34-.12-2V40a5.16,5.16,0,0,1,.12,10.3Z"/><rect class="cls-2" x="160.93" y="24.68" width="6.67" height="11.01" transform="translate(126.05 -132.39) rotate(66.36)"/></g></g></svg>